<?xml version="1.0" encoding="UTF-8" standalone="no"?>
<!-- Created with Inkscape (http://www.inkscape.org/) -->

<svg
   xmlns:dc="http://purl.org/dc/elements/1.1/"
   xmlns:cc="http://creativecommons.org/ns#"
   xmlns:rdf="http://www.w3.org/1999/02/22-rdf-syntax-ns#"
   xmlns:svg="http://www.w3.org/2000/svg"
   xmlns="http://www.w3.org/2000/svg"
   xmlns:sodipodi="http://sodipodi.sourceforge.net/DTD/sodipodi-0.dtd"
   xmlns:inkscape="http://www.inkscape.org/namespaces/inkscape"
   width="20"
   height="20"
   id="svg2"
   version="1.1"
   inkscape:version="0.48.5 r10040"
   sodipodi:docname="time.svg">
  <defs
     id="defs4" />
  <sodipodi:namedview
     id="base"
     pagecolor="#ffffff"
     bordercolor="#666666"
     borderopacity="1.0"
     inkscape:pageopacity="0.0"
     inkscape:pageshadow="2"
     inkscape:zoom="4"
     inkscape:cx="17.635889"
     inkscape:cy="6.5501048"
     inkscape:document-units="px"
     inkscape:current-layer="layer1"
     showgrid="false"
     inkscape:object-nodes="false"
     inkscape:object-paths="false"
     inkscape:window-width="868"
     inkscape:window-height="595"
     inkscape:window-x="806"
     inkscape:window-y="152"
     inkscape:window-maximized="0" />
  <metadata
     id="metadata7">
    <rdf:RDF>
      <cc:Work
         rdf:about="">
        <dc:format>image/svg+xml</dc:format>
        <dc:type
           rdf:resource="http://purl.org/dc/dcmitype/StillImage" />
        <dc:title></dc:title>
      </cc:Work>
    </rdf:RDF>
  </metadata>
  <g
     inkscape:label="Layer 1"
     inkscape:groupmode="layer"
     id="layer1"
     transform="translate(0,-1032.3622)">
    <path
       style="fill:#333333;fill-opacity:1;stroke:none"
       d="M 10.0625 0.46875 C 4.759199 0.46875 0.46875 4.790449 0.46875 10.09375 C 0.46875 15.397051 4.759199 19.6875 10.0625 19.6875 C 15.365801 19.6875 19.6875 15.397051 19.6875 10.09375 C 19.6875 4.790449 15.365801 0.46875 10.0625 0.46875 z M 10.0625 1.84375 C 14.60641 1.84375 18.3125 5.5498405 18.3125 10.09375 C 18.3125 14.63766 14.60641 18.3125 10.0625 18.3125 C 5.5185905 18.3125 1.84375 14.63766 1.84375 10.09375 C 1.84375 5.5498405 5.5185905 1.84375 10.0625 1.84375 z "
       transform="translate(0,1032.3622)"
       id="path3022" />
    <path
       transform="matrix(0.63650486,0,0,0.63650486,2.9331544,1033.5921)"
       d="m 13.258252,13.901204 a 2.032932,2.032932 0 1 1 -4.0658642,0 2.032932,2.032932 0 1 1 4.0658642,0 z"
       sodipodi:ry="2.032932"
       sodipodi:rx="2.032932"
       sodipodi:cy="13.901204"
       sodipodi:cx="11.22532"
       id="path3026"
       style="fill:#333333;fill-opacity:1;stroke:none"
       sodipodi:type="arc" />
    <path
       style="fill:#333333;fill-opacity:1;stroke:none"
       d="m 10.050571,1034.7571 c -0.4210732,0.01 -0.6259443,0.4924 -0.5378029,0.8574 0.013934,2.0377 -0.028125,4.0797 0.0216,6.1149 0.1133556,0.4808 0.8935569,0.5468 1.0613239,0.071 0.146497,-0.4182 0.0024,-0.8699 0.05446,-1.2999 -0.01052,-1.7753 0.02391,-3.5533 -0.01831,-5.3269 -0.06737,-0.2502 -0.320745,-0.4367 -0.58127,-0.4164 z"
       id="rect3028"
       inkscape:connector-curvature="0" />
    <path
       style="fill:#333333;fill-opacity:1;stroke:none"
       d="m 15.045067,1041.8602 c -1.369281,0.035 -2.744569,-0.011 -4.115162,0.017 -0.420466,0.087 -0.475374,0.6928 -0.245811,0.9847 0.298157,0.2843 0.748135,0.092 1.113374,0.1463 1.188873,-0.019 2.39023,0.046 3.57149,-0.034 0.380321,-0.1767 0.386152,-0.8159 0.0535,-1.0396 -0.114079,-0.064 -0.248206,-0.081 -0.377392,-0.075 z"
       id="rect3030"
       inkscape:connector-curvature="0" />
  </g>
</svg>
